<svg width="12" height="14" viewBox="0 0 12 14" fill="current" xmlns="http://www.w3.org/2000/svg">
<path d="M3.33331 5V3.66667C3.33331 2.19391 4.52722 1 5.99998 1C7.47274 1 8.66665 2.19391 8.66665 3.66667V5M3.46665 13H8.53331C9.28005 13 9.65342 13 9.93863 12.8547C10.1895 12.7268 10.3935 12.5229 10.5213 12.272C10.6666 11.9868 10.6666 11.6134 10.6666 10.8667V7.13333C10.6666 6.3866 10.6666 6.01323 10.5213 5.72801C10.3935 5.47713 10.1895 5.27316 9.93863 5.14532C9.65342 5 9.28005 5 8.53331 5H3.46665C2.71991 5 2.34654 5 2.06133 5.14532C1.81044 5.27316 1.60647 5.47713 1.47864 5.72801C1.33331 6.01323 1.33331 6.3866 1.33331 7.13333V10.8667C1.33331 11.6134 1.33331 11.9868 1.47864 12.272C1.60647 12.5229 1.81044 12.7268 2.06133 12.8547C2.34654 13 2.71991 13 3.46665 13Z" stroke="#437EF7" stroke-width="2" stroke-linecap="round"/>
</svg>
