<svg width="180" height="34" viewBox="0 0 180 34" fill="current" xmlns="http://www.w3.org/2000/svg">
<path d="M43.5852 6.87972H47.8442V23.107H55.7377V26.7695H43.5852V6.87972Z" fill="white"/>
<path d="M57.655 23.3912C57.003 22.1897 56.6747 20.8392 56.7024 19.4725C56.6747 18.1057 57.003 16.7553 57.655 15.5537C58.275 14.4311 59.2139 13.5173 60.3529 12.9279C61.6152 12.3194 62.9984 12.0033 64.3997 12.0033C65.801 12.0033 67.1843 12.3194 68.4465 12.9279C69.5839 13.5197 70.5221 14.4328 71.1444 15.5537C71.7933 16.7563 72.1201 18.1063 72.0931 19.4725C72.1235 20.8441 71.7965 22.2001 71.1444 23.4072C70.5179 24.5209 69.5804 25.4278 68.4465 26.017C67.1843 26.6256 65.801 26.9416 64.3997 26.9416C62.9984 26.9416 61.6152 26.6256 60.3529 26.017C59.2139 25.4276 58.275 24.5139 57.655 23.3912ZM68.0342 19.4725C68.0793 18.3727 67.7253 17.2937 67.0375 16.4344C66.7138 16.0554 66.308 15.755 65.851 15.5559C65.394 15.3569 64.8977 15.2644 64.3997 15.2856C63.902 15.2655 63.4064 15.3602 62.9511 15.5621C62.4958 15.7641 62.0931 16.068 61.7739 16.4504C61.0902 17.3111 60.7418 18.3905 60.7932 19.4885C60.7418 20.5865 61.0902 21.6659 61.7739 22.5266C62.0931 22.909 62.4958 23.2129 62.9511 23.4148C63.4064 23.6168 63.902 23.7114 64.3997 23.6914C64.9003 23.7086 65.3982 23.6112 65.8554 23.4065C66.3126 23.2019 66.7169 22.8954 67.0375 22.5106C67.7253 21.6512 68.0793 20.5722 68.0342 19.4725Z" fill="white"/>
<path d="M74.6908 23.3912C74.0388 22.1897 73.7105 20.8392 73.7382 19.4725C73.7105 18.1057 74.0388 16.7553 74.6908 15.5538C75.3109 14.4311 76.2497 13.5173 77.3887 12.9279C78.6503 12.3194 80.0329 12.0034 81.4335 12.0034C82.8342 12.0034 84.2168 12.3194 85.4783 12.9279C86.6174 13.5173 87.5562 14.4311 88.1762 15.5538C88.8282 16.7553 89.1565 18.1057 89.1289 19.4725C89.1599 20.8447 88.8315 22.2012 88.1762 23.4072C87.552 24.5226 86.6138 25.4301 85.4783 26.017C84.2168 26.6255 82.8342 26.9415 81.4335 26.9415C80.0329 26.9415 78.6503 26.6255 77.3887 26.017C76.2497 25.4276 75.3109 24.5139 74.6908 23.3912ZM85.0701 19.4725C85.1196 18.3747 84.7714 17.296 84.0894 16.4344C83.7541 16.0674 83.346 15.7743 82.8911 15.5737C82.4363 15.3732 81.9446 15.2696 81.4475 15.2696C80.9504 15.2696 80.4588 15.3732 80.0039 15.5737C79.5491 15.7743 79.141 16.0674 78.8057 16.4344C78.1308 17.2987 77.7898 18.3772 77.845 19.4725C77.7943 20.5697 78.1411 21.6484 78.8217 22.5106C79.157 22.8776 79.5651 23.1707 80.0199 23.3712C80.4748 23.5717 80.9664 23.6753 81.4635 23.6753C81.9606 23.6753 82.4523 23.5717 82.9071 23.3712C83.362 23.1707 83.7701 22.8776 84.1054 22.5106C84.7817 21.6468 85.1242 20.5682 85.0701 19.4725Z" fill="white"/>
<path d="M95.3452 6.87972V18.3917L101.081 12.1754H105.568L100.365 17.8834L105.864 26.7695H101.225L97.5347 20.8654L95.3452 23.2191V26.7695H91.3424V6.87972H95.3452Z" fill="white"/>
<path d="M110.792 23.4753C111.438 23.9041 112.202 24.1196 112.977 24.0917C113.668 24.1273 114.356 23.9897 114.979 23.6914C115.209 23.5875 115.402 23.4181 115.536 23.2045C115.67 22.9909 115.738 22.7426 115.731 22.4906C115.744 22.3319 115.719 22.1725 115.66 22.0247C115.601 21.8769 115.509 21.7446 115.391 21.638C115.106 21.4291 114.775 21.2918 114.426 21.2377C114.026 21.1536 113.33 21.0536 112.381 20.9415C111.298 20.8114 110.227 20.5931 109.179 20.289C108.397 20.0642 107.691 19.6328 107.133 19.0402C106.598 18.4071 106.324 17.5945 106.365 16.7666C106.354 15.8644 106.635 14.9829 107.165 14.2529C107.724 13.4939 108.486 12.9084 109.363 12.5637C110.401 12.1497 111.512 11.9469 112.629 11.9673C114.617 11.9859 116.218 12.4116 117.433 13.2442C118.016 13.621 118.499 14.1328 118.843 14.7362C119.186 15.3395 119.38 16.0168 119.406 16.7106H115.603C115.573 16.4343 115.479 16.1689 115.329 15.9349C115.179 15.7009 114.977 15.5047 114.739 15.3616C114.139 14.99 113.442 14.8073 112.737 14.8373C112.1 14.8077 111.467 14.9545 110.908 15.2616C110.699 15.3695 110.524 15.5325 110.401 15.7329C110.279 15.9333 110.213 16.1634 110.212 16.3983C110.202 16.5466 110.231 16.6948 110.296 16.8286C110.36 16.9625 110.458 17.0776 110.58 17.1629C110.872 17.3527 111.201 17.4795 111.544 17.5351C111.945 17.6072 112.605 17.6952 113.546 17.7873C115.515 18.0168 117.026 18.4384 118.077 19.0522C119.126 19.6686 119.65 20.7213 119.65 22.2184C119.664 23.122 119.369 24.0031 118.814 24.7161C118.204 25.473 117.398 26.0476 116.484 26.3773C115.38 26.7857 114.21 26.9839 113.033 26.9617C111.008 26.9617 109.362 26.512 108.094 25.6127C107.491 25.2034 106.995 24.656 106.647 24.0161C106.299 23.3763 106.109 22.6625 106.093 21.9342H109.867C109.894 22.2444 109.992 22.5443 110.152 22.8113C110.312 23.0782 110.531 23.3053 110.792 23.4753Z" fill="white"/>
<path d="M128.876 26.9417C127.495 26.9729 126.128 26.6549 124.902 26.017C123.786 25.4203 122.873 24.5066 122.276 23.3912C121.645 22.1828 121.329 20.8352 121.355 19.4725C121.325 18.1055 121.642 16.7531 122.276 15.5418C122.879 14.4285 123.798 13.5189 124.918 12.9279C126.153 12.2886 127.53 11.9706 128.921 12.0033C130.871 12.0033 132.46 12.501 133.688 13.4963C134.943 14.534 135.756 16.0112 135.961 17.6272H131.803C131.664 16.9566 131.305 16.3518 130.782 15.91C130.245 15.4735 129.568 15.246 128.876 15.2696C128.398 15.2534 127.922 15.3505 127.488 15.5529C127.054 15.7553 126.674 16.0573 126.379 16.4344C125.723 17.3075 125.392 18.3817 125.442 19.4725C125.392 20.5632 125.723 21.6375 126.379 22.5106C126.672 22.8906 127.052 23.1957 127.486 23.4009C127.92 23.6061 128.396 23.7057 128.876 23.6914C129.582 23.7162 130.274 23.4844 130.822 23.039C131.356 22.5784 131.713 21.9455 131.831 21.2497H135.949C135.762 22.8834 134.954 24.3826 133.692 25.4366C132.451 26.44 130.846 26.9417 128.876 26.9417Z" fill="white"/>
<path d="M138.287 23.3912C137.635 22.1897 137.307 20.8392 137.334 19.4725C137.307 18.1057 137.635 16.7553 138.287 15.5538C138.907 14.4311 139.846 13.5173 140.985 12.9279C142.246 12.3194 143.629 12.0034 145.03 12.0034C146.43 12.0034 147.813 12.3194 149.075 12.9279C150.214 13.5173 151.152 14.4311 151.772 15.5538C152.424 16.7553 152.753 18.1057 152.725 19.4725C152.756 20.8447 152.428 22.2012 151.772 23.4072C151.154 24.5198 150.223 25.427 149.095 26.017C147.833 26.6255 146.45 26.9415 145.05 26.9415C143.649 26.9415 142.266 26.6255 141.005 26.017C139.858 25.4308 138.912 24.5168 138.287 23.3912ZM148.666 19.4725C148.716 18.3747 148.368 17.296 147.686 16.4344C147.35 16.0674 146.942 15.7743 146.487 15.5737C146.032 15.3732 145.541 15.2696 145.044 15.2696C144.547 15.2696 144.055 15.3732 143.6 15.5737C143.145 15.7743 142.737 16.0674 142.402 16.4344C141.721 17.2965 141.374 18.3752 141.425 19.4725C141.374 20.5697 141.721 21.6484 142.402 22.5106C142.737 22.8776 143.145 23.1707 143.6 23.3712C144.055 23.5717 144.547 23.6753 145.044 23.6753C145.541 23.6753 146.032 23.5717 146.487 23.3712C146.942 23.1707 147.35 22.8776 147.686 22.5106C148.369 21.6496 148.719 20.5707 148.67 19.4725H148.666Z" fill="white"/>
<path d="M168.684 26.7695H165.138L164.765 25.0083C164.253 25.6445 163.598 26.151 162.853 26.4869C162.108 26.8228 161.295 26.9786 160.478 26.9417C159.712 26.9709 158.947 26.8465 158.23 26.5756C157.512 26.3048 156.856 25.893 156.3 25.3646C155.232 24.3158 154.698 22.5599 154.698 20.0969V12.1754H158.701V19.6126C158.701 20.9415 158.933 21.9382 159.398 22.6106C159.639 22.9483 159.963 23.2184 160.339 23.395C160.714 23.5716 161.129 23.6488 161.543 23.6193C161.993 23.6396 162.441 23.5478 162.847 23.3522C163.253 23.1566 163.604 22.8633 163.869 22.4986C164.421 21.75 164.693 20.7013 164.693 19.3604V12.1754H168.696L168.684 26.7695Z" fill="white"/>
<path d="M170.105 15.5537V12.1754H172.507V8.08056H176.51V12.1754H179.832V15.5537H176.51V21.9582C176.474 22.3555 176.589 22.7517 176.834 23.067C176.985 23.194 177.159 23.2896 177.348 23.348C177.536 23.4065 177.734 23.4266 177.931 23.4072H180V26.7856H176.714C173.928 26.7856 172.536 25.3939 172.539 22.6106V15.5537H170.105Z" fill="white"/>
<path d="M20.7846 3.80007L0 15.8001V8.60007L14.5538 0.200073L20.7846 3.80007Z" fill="white"/>
<path d="M29.1077 8.60007V12.7539L3.6 27.477L0 25.4001V21.4924L25.7077 6.64623L29.1077 8.60007Z" fill="white"/>
<path d="M8.52308 30.3231L29.1077 18.4462V25.4001L14.5538 33.8001L8.52308 30.3231Z" fill="white"/>
</svg>
